<svg class="icon" viewBox="0 0 24 24" fill="none" xmlns="http://www.w3.org/2000/svg">
<path d="M12 10C14.2091 10 16 8.20914 16 6C16 3.79086 14.2091 2 12 2C9.79086 2 8 3.79086 8 6C8 8.20914 9.79086 10 12 10Z" stroke="currentColor" stroke-width="1.5"/>
<path d="M18 9C19.657 9 21 7.88 21 6.5C21 5.12 19.657 4 18 4M6 9C4.343 9 3 7.88 3 6.5C3 5.12 4.343 4 6 4" stroke="currentColor" stroke-width="1.5" stroke-linecap="round"/>
<path d="M12 21C15.3137 21 18 19.2091 18 17C18 14.7909 15.3137 13 12 13C8.68629 13 6 14.7909 6 17C6 19.2091 8.68629 21 12 21Z" stroke="currentColor" stroke-width="1.5"/>
<path d="M20 19C21.754 18.615 23 17.641 23 16.5C23 15.359 21.754 14.385 20 14M4 19C2.246 18.615 1 17.641 1 16.5C1 15.359 2.246 14.385 4 14" stroke="currentColor" stroke-width="1.5" stroke-linecap="round"/>
</svg>
