<svg class="icon" viewBox="0 0 12 12" fill="none" xmlns="http://www.w3.org/2000/svg">
<path d="M2.83518 4.95711L4.36618 2.88561C5.35568 1.54661 5.85068 0.877111 6.31218 1.01861C6.77368 1.16011 6.77368 1.98111 6.77368 3.62361V3.77861C6.77368 4.37111 6.77368 4.66711 6.96318 4.85261L6.97318 4.86261C7.16668 5.04411 7.47468 5.04411 8.09118 5.04411C9.20118 5.04411 9.75568 5.04411 9.94318 5.38061L9.95218 5.39761C10.1292 5.73911 9.80768 6.17411 9.16518 7.04261L7.63418 9.11461C6.64418 10.4536 6.14968 11.1231 5.68818 10.9816C5.22668 10.8401 5.22668 10.0191 5.22668 8.37661V8.22161C5.22668 7.62911 5.22668 7.33311 5.03718 7.14761L5.02718 7.13761C4.83368 6.95611 4.52568 6.95611 3.90918 6.95611C2.79918 6.95611 2.24468 6.95611 2.05768 6.61961L2.04818 6.60261C1.87118 6.26111 2.19268 5.82661 2.83518 4.95761V4.95711Z" stroke="currentColor" stroke-width="0.75"/>
</svg>
