<svg class="icon" viewBox="0 0 24 24" fill="none" xmlns="http://www.w3.org/2000/svg">
<path d="M7.63909 17.063C7.56951 16.9918 7.48646 16.9352 7.39478 16.8964C7.3031 16.8577 7.20462 16.8375 7.10508 16.8372C7.00554 16.8369 6.90694 16.8564 6.81502 16.8946C6.7231 16.9328 6.63969 16.9889 6.56968 17.0597C6.49966 17.1304 6.44442 17.2144 6.40719 17.3067C6.36996 17.399 6.35148 17.4978 6.35282 17.5973C6.35416 17.6969 6.3753 17.7951 6.41501 17.8864C6.45471 17.9777 6.51219 18.0601 6.58409 18.129L7.63909 17.063ZM13.1161 10.883C12.8819 10.6486 12.7504 10.3308 12.7504 9.99948C12.7504 9.66814 12.8819 9.35037 13.1161 9.11598L12.0561 8.05598C11.5404 8.5717 11.2507 9.27115 11.2507 10.0005C11.2507 10.7298 11.5404 11.4293 12.0561 11.945L13.1161 10.883ZM14.8841 10.883C14.768 10.9991 14.6302 11.0912 14.4785 11.154C14.3268 11.2169 14.1643 11.2492 14.0001 11.2492C13.8359 11.2492 13.6733 11.2169 13.5217 11.154C13.37 11.0912 13.2322 10.9991 13.1161 10.883L12.0561 11.945C12.5718 12.4607 13.2713 12.7504 14.0006 12.7504C14.7299 12.7504 15.4294 12.4607 15.9451 11.945L14.8841 10.883ZM14.8841 9.11598C15.0002 9.23205 15.0923 9.36987 15.1551 9.52155C15.218 9.67322 15.2503 9.8358 15.2503 9.99998C15.2503 10.1642 15.218 10.3267 15.1551 10.4784C15.0923 10.6301 15.0002 10.7669 14.8841 10.883L15.9441 11.944C16.4598 11.4283 16.7495 10.7288 16.7495 9.99948C16.7495 9.27015 16.4598 8.5707 15.9441 8.05498L14.8841 9.11598ZM15.9441 8.05498C15.4284 7.53928 14.7289 7.25056 13.9996 7.25056C13.2703 7.25056 12.5718 7.54028 12.0561 8.05598L13.1161 9.11598C13.2322 8.99987 13.37 8.90776 13.5217 8.84493C13.6733 8.78209 13.8359 8.74974 14.0001 8.74974C14.1643 8.74974 14.3268 8.78209 14.4785 8.84493C14.6302 8.90776 14.768 8.99987 14.8841 9.11598L15.9441 8.05498ZM18.4471 5.55298C19.6017 6.70763 20.2503 8.27362 20.2503 9.90648C20.2503 11.5393 19.6017 13.1053 18.4471 14.26L19.5071 15.32C20.9426 13.8841 21.749 11.9368 21.749 9.90648C21.749 7.87611 20.9426 5.92888 19.5071 4.49298L18.4471 5.55298ZM19.5071 4.49298C18.0712 3.0572 16.1237 2.25061 14.0931 2.25061C12.0625 2.25061 10.115 3.0572 8.67909 4.49298L9.73909 5.55298C10.3108 4.98114 10.9896 4.52754 11.7367 4.21806C12.4837 3.90858 13.2845 3.74929 14.0931 3.74929C14.9017 3.74929 15.7024 3.90858 16.4495 4.21806C17.1966 4.52754 17.8753 4.98114 18.4471 5.55298L19.5071 4.49298ZM6.61509 12.138L2.90309 15.85L3.96309 16.91L7.67709 13.2L6.61509 12.138ZM8.15009 21.097L9.39009 19.857L8.33009 18.796L7.09009 20.036L8.15009 21.097ZM9.39009 19.857L11.8621 17.385L10.8021 16.324L8.33009 18.796L9.39009 19.857ZM2.26409 17.673L2.49609 19.762L3.98609 19.596L3.75409 17.508L2.26409 17.673ZM4.23809 21.504L6.32709 21.736L6.49209 20.246L4.40409 20.014L4.23809 21.504ZM2.99409 20.798L3.20209 21.006L4.26209 19.946L4.05409 19.737L2.99409 20.798ZM4.40409 20.014C4.35081 20.0077 4.30017 19.9838 4.26209 19.946L3.20209 21.006C3.48109 21.286 3.84609 21.461 4.23809 21.504L4.40409 20.014ZM2.49609 19.762C2.53909 20.154 2.71509 20.519 2.99409 20.798L4.05409 19.738C4.01647 19.6995 3.99187 19.6495 3.98609 19.596L2.49609 19.762ZM7.09009 20.036C7.01272 20.1135 6.91788 20.1727 6.81453 20.209C6.71118 20.2454 6.60098 20.258 6.49209 20.246L6.32709 21.736C6.6595 21.7728 6.99594 21.7344 7.3115 21.6237C7.62706 21.5129 7.91367 21.3335 8.15009 21.097L7.09009 20.036ZM2.90309 15.85C2.66654 16.0864 2.4862 16.373 2.37541 16.6886C2.26463 17.0041 2.22724 17.3406 2.26409 17.673L3.75409 17.508C3.74205 17.3991 3.75468 17.2889 3.79103 17.1855C3.82739 17.0822 3.88653 16.9884 3.96409 16.911L2.90309 15.85ZM8.13109 11.445C7.86288 10.4078 7.87025 9.31857 8.15247 8.28512C8.43468 7.25167 8.98096 6.30987 9.73909 5.55298L8.68009 4.49298C7.73763 5.43402 7.05719 6.60482 6.70606 7.88954C6.35493 9.17426 6.34529 10.5284 6.67809 11.818L8.13109 11.445ZM18.4471 14.26C17.6903 15.0183 16.7485 15.5657 15.7151 15.8481C14.6816 16.1305 13.5923 16.1381 12.5551 15.87L12.1821 17.322C13.4716 17.6549 14.8257 17.6454 16.1104 17.2945C17.3951 16.9435 18.5659 16.2633 19.5071 15.321L18.4471 14.26ZM11.8621 17.385C11.9181 17.33 12.0321 17.284 12.1821 17.322L12.5551 15.87C11.9671 15.72 11.2851 15.841 10.8021 16.324L11.8621 17.385ZM7.67709 13.2C8.16009 12.717 8.28209 12.034 8.13109 11.446L6.67809 11.819C6.71609 11.969 6.67109 12.083 6.61509 12.139L7.67709 13.2ZM9.38709 18.794L7.63809 17.064L6.58409 18.129L8.33309 19.86L9.38709 18.794Z" fill="currentColor"/>
</svg>
