<svg class="icon" viewBox="0 0 24 24" fill="none" xmlns="http://www.w3.org/2000/svg">
<path d="M9.74923 2.494L18.1592 7.32M18.1592 7.32L15.9022 11.216M18.1592 7.32L19.0002 7.804M12.5502 17.001L11.0552 19.581C10.4093 20.6931 9.34894 21.5038 8.10642 21.8356C6.8639 22.1673 5.54053 21.9931 4.42623 21.351C3.87502 21.0348 3.39165 20.6129 3.00388 20.1095C2.61611 19.606 2.33155 19.031 2.16655 18.4173C2.00154 17.8037 1.95933 17.1635 2.04233 16.5334C2.12533 15.9034 2.33192 15.296 2.65023 14.746L9.75023 2.494L8.91323 2M12.5502 17.001L14.1892 14.174L15.9022 11.216M12.5502 17.001L9.93723 15.497M15.9022 11.216L13.3442 9.745M14.1882 14.174L9.98523 11.756" stroke="currentColor" stroke-width="1.5" stroke-linecap="round"/>
<path d="M22 14.9169C22 16.0669 21.105 16.9999 20 16.9999C18.895 16.9999 18 16.0669 18 14.9169C18 14.1969 18.783 13.2359 19.37 12.6169C19.4505 12.5303 19.548 12.4612 19.6564 12.4139C19.7648 12.3667 19.8818 12.3423 20 12.3423C20.1182 12.3423 20.2352 12.3667 20.3436 12.4139C20.452 12.4612 20.5495 12.5303 20.63 12.6169C21.217 13.2359 22 14.1969 22 14.9169Z" stroke="currentColor" stroke-width="1.5"/>
</svg>
