<svg class="icon" viewBox="0 0 24 24" fill="none" xmlns="http://www.w3.org/2000/svg">
<path d="M12.2431 6.18402L8.55914 8.27402C7.72814 8.74602 7.31214 8.98202 7.20414 9.38602C7.09614 9.79002 7.33814 10.202 7.82214 11.026L8.41714 12.041C8.88914 12.843 9.12414 13.244 9.52014 13.35C9.91614 13.456 10.3201 13.226 11.1301 12.767L14.8651 10.647M7.05614 9.72302L3.42414 11.784C2.56714 12.27 2.13914 12.514 2.02714 12.926C1.91514 13.338 2.16214 13.759 2.65614 14.601C3.15014 15.442 3.39714 15.863 3.81714 15.974C4.23714 16.085 4.66514 15.841 5.52114 15.355L9.15414 13.293M21.3441 5.18502L20.2951 3.39902C19.8011 2.55802 19.5541 2.13702 19.1351 2.02602C18.7151 1.91602 18.2871 2.15902 17.4301 2.64502L13.7471 4.73502C12.9151 5.20702 12.5001 5.44302 12.3921 5.84702C12.2831 6.25202 12.5251 6.66402 13.0091 7.48702L14.1291 9.39502C14.6001 10.197 14.8361 10.598 15.2321 10.704C15.6281 10.81 16.0321 10.58 16.8411 10.121L20.5761 8.00102C21.4331 7.51502 21.8611 7.27202 21.9731 6.86002C22.0851 6.44802 21.8381 6.02702 21.3441 5.18502Z" stroke="currentColor" stroke-width="1.5" stroke-linejoin="round"/>
<path d="M16 22L12 12.5L8 22" stroke="currentColor" stroke-width="1.5" stroke-linecap="round"/>
</svg>
