<svg class="icon" viewBox="0 0 17 16" fill="none" xmlns="http://www.w3.org/2000/svg">
<path d="M5.625 3.3931V14.9439M10.625 0.360596V12.0273M0.625 5.11893C0.625 3.8906 0.625 3.27726 0.9525 2.91893C1.06841 2.79146 1.20941 2.68932 1.36667 2.61893C1.81 2.42226 2.3925 2.61643 3.5575 3.00476C4.44667 3.30143 4.89083 3.44976 5.34083 3.43393C5.50591 3.4285 5.67005 3.40673 5.83083 3.36893C6.26833 3.26476 6.65833 3.00476 7.43833 2.4856L8.59 1.71726C9.59 1.0506 10.0892 0.717262 10.6625 0.641429C11.2358 0.563929 11.8058 0.753929 12.945 1.13393L13.9158 1.45726C14.7408 1.73226 15.1533 1.86976 15.3892 2.19726C15.625 2.52476 15.625 2.9606 15.625 3.82893V10.6031C15.625 11.8306 15.625 12.4448 15.2975 12.8031C15.1814 12.93 15.0404 13.0315 14.8833 13.1014C14.44 13.2989 13.8575 13.1048 12.6925 12.7164C11.8033 12.4198 11.3592 12.2714 10.9092 12.2873C10.7441 12.2927 10.58 12.3145 10.4192 12.3523C9.98167 12.4564 9.59167 12.7164 8.81167 13.2356L7.66 14.0039C6.66 14.6706 6.16083 15.0039 5.5875 15.0798C5.01417 15.1573 4.44417 14.9673 3.305 14.5873L2.33417 14.2639C1.50917 13.9889 1.09667 13.8514 0.860833 13.5239C0.625 13.1964 0.625 12.7606 0.625 11.8923V5.11893Z" stroke="currentColor" stroke-width="1.25"/>
</svg>
