<svg class="icon" viewBox="0 0 12 12" fill="none" xmlns="http://www.w3.org/2000/svg">
<g clip-path="url(#clip0_81_28)">
<path d="M10.625 6C10.625 7.22663 10.1377 8.40301 9.27037 9.27037C8.40301 10.1377 7.22663 10.625 6 10.625V11.375C8.9685 11.375 11.375 8.9685 11.375 6H10.625ZM6 10.625C4.77337 10.625 3.59699 10.1377 2.72963 9.27037C1.86228 8.40301 1.375 7.22663 1.375 6H0.625C0.625 8.9685 3.0315 11.375 6 11.375V10.625ZM1.375 6C1.375 4.77337 1.86228 3.59699 2.72963 2.72963C3.59699 1.86228 4.77337 1.375 6 1.375V0.625C3.0315 0.625 0.625 3.0315 0.625 6H1.375ZM7.75 7.125C6.9875 7.125 6.25624 6.8221 5.71707 6.28293C5.1779 5.74376 4.875 5.0125 4.875 4.25H4.125C4.125 5.21141 4.50692 6.13344 5.18674 6.81326C5.86656 7.49308 6.78859 7.875 7.75 7.875V7.125ZM10.2125 5.7345C9.95666 6.15882 9.59549 6.50983 9.16404 6.75346C8.73258 6.99708 8.24549 7.12507 7.75 7.125V7.875C8.37469 7.87518 8.98883 7.71393 9.53285 7.40688C10.0769 7.09983 10.5323 6.6574 10.855 6.1225L10.2125 5.7345ZM4.875 4.25C4.87493 3.75451 5.00292 3.26742 5.24654 2.83596C5.49017 2.40451 5.84118 2.04334 6.2655 1.7875L5.8775 1.1455C5.34268 1.46814 4.90029 1.9235 4.59324 2.46743C4.2862 3.01136 4.1249 3.62539 4.125 4.25H4.875ZM6 1.375C5.97487 1.37452 5.95009 1.36905 5.92709 1.35893C5.90409 1.3488 5.88332 1.33421 5.866 1.316C5.84492 1.29483 5.83064 1.26784 5.825 1.2385C5.823 1.223 5.824 1.178 5.8775 1.1455L6.2655 1.7875C6.517 1.6355 6.598 1.357 6.5685 1.138C6.5375 0.9105 6.3585 0.625 6 0.625V1.375ZM10.855 6.1225C10.822 6.176 10.777 6.177 10.7615 6.175C10.7322 6.16936 10.7052 6.15508 10.684 6.134C10.6658 6.11668 10.6512 6.09591 10.6411 6.07291C10.6309 6.04991 10.6255 6.02513 10.625 6H11.375C11.375 5.6415 11.0895 5.4625 10.862 5.4315C10.643 5.402 10.3645 5.483 10.2125 5.7345L10.855 6.1225Z" fill="currentColor"/>
</g>
<defs>
<clipPath id="clip0_81_28">
<rect fill="white"/>
</clipPath>
</defs>
</svg>
