<svg class="icon" viewBox="0 0 20 20" fill="none" xmlns="http://www.w3.org/2000/svg">
<path d="M1.6665 9.99992C1.6665 6.85742 1.6665 5.28575 2.64317 4.30992C3.61984 3.33409 5.19067 3.33325 8.33317 3.33325H11.6665C14.809 3.33325 16.3807 3.33325 17.3565 4.30992C18.3323 5.28659 18.3332 6.85742 18.3332 9.99992C18.3332 13.1424 18.3332 14.7141 17.3565 15.6899C16.3798 16.6658 14.809 16.6666 11.6665 16.6666H8.33317C5.19067 16.6666 3.619 16.6666 2.64317 15.6899C1.66734 14.7133 1.6665 13.1424 1.6665 9.99992Z" stroke="currentColor" stroke-width="1.25"/>
<path d="M5 6.6665L6.79917 8.1665C8.33 9.4415 9.095 10.079 10 10.079C10.905 10.079 11.6708 9.4415 13.2008 8.16567L15 6.6665" stroke="currentColor" stroke-width="1.25" stroke-linecap="round"/>
</svg>
