<svg class="icon" viewBox="0 0 24 24" fill="none" xmlns="http://www.w3.org/2000/svg">
<path d="M3.74189 18.555C4.94189 20 7.17389 20 11.6399 20H12.3599C16.8259 20 19.0589 20 20.2589 18.555M3.74189 18.555C2.54189 17.109 2.95389 14.915 3.77689 10.525C4.36189 7.405 4.65389 5.844 5.76489 4.922M20.2589 18.555C21.4589 17.109 21.0469 14.915 20.2239 10.525C19.6389 7.405 19.3459 5.844 18.2349 4.922M18.2349 4.922C17.1249 4 15.5359 4 12.3609 4H11.6389C8.46389 4 6.87589 4 5.76489 4.922" stroke="currentColor" stroke-width="1.5"/>
<path d="M9.16992 8C9.37652 8.58553 9.75966 9.09257 10.2665 9.45121C10.7734 9.80986 11.379 10.0025 11.9999 10.0025C12.6208 10.0025 13.2265 9.80986 13.7333 9.45121C14.2402 9.09257 14.6233 8.58553 14.8299 8" stroke="currentColor" stroke-width="1.5" stroke-linecap="round"/>
</svg>
