<svg class="icon" viewBox="0 0 24 24" fill="none" xmlns="http://www.w3.org/2000/svg">
<path d="M16.9998 17H17.9998C19.0607 17 20.0781 16.5786 20.8282 15.8284C21.5784 15.0783 21.9998 14.0609 21.9998 13C21.9998 11.9391 21.5784 10.9217 20.8282 10.1716C20.0781 9.42143 19.0607 9 17.9998 9H16.9998M15.9998 18H3.99982M3.28382 11.266C3.15082 9.266 3.08382 8.267 3.67682 7.634C4.26982 7 5.27182 7 7.27582 7H12.7248C14.7278 7 15.7298 7 16.3228 7.634C16.9158 8.267 16.8488 9.267 16.7158 11.266L16.3728 16.399C16.1958 19.054 16.1078 20.381 15.2428 21.191C14.3778 22.001 13.0468 22 10.3868 22H9.61282C6.95282 22 5.62282 22 4.75682 21.19C3.89182 20.381 3.80382 19.054 3.62682 16.4L3.28382 11.266Z" stroke="currentColor" stroke-width="1.5"/>
<path d="M6.04988 5.06099L6.46088 4.48599C6.51493 4.41037 6.55354 4.32485 6.5745 4.23429C6.59546 4.14374 6.59836 4.04995 6.58304 3.95827C6.56771 3.8666 6.53446 3.77885 6.48519 3.70004C6.43591 3.62123 6.37158 3.55291 6.29588 3.49899C6.14327 3.3901 6.04015 3.22506 6.00921 3.04015C5.97827 2.85525 6.02203 2.66563 6.13088 2.51299L6.54088 1.93799M14.0509 5.06099L14.4609 4.48599C14.5149 4.41037 14.5535 4.32485 14.5745 4.23429C14.5955 4.14374 14.5984 4.04995 14.583 3.95827C14.5677 3.8666 14.5345 3.77885 14.4852 3.70004C14.4359 3.62123 14.3716 3.55291 14.2959 3.49899C14.1433 3.3901 14.0402 3.22506 14.0092 3.04015C13.9783 2.85525 14.022 2.66563 14.1309 2.51299L14.5409 1.93799M10.0509 5.06099L10.4609 4.48599C10.5149 4.41037 10.5535 4.32485 10.5745 4.23429C10.5955 4.14374 10.5984 4.04995 10.583 3.95827C10.5677 3.8666 10.5345 3.77885 10.4852 3.70004C10.4359 3.62123 10.3716 3.55291 10.2959 3.49899C10.1433 3.3901 10.0402 3.22506 10.0092 3.04015C9.97827 2.85525 10.022 2.66563 10.1309 2.51299L10.5409 1.93799" stroke="currentColor" stroke-width="1.5" stroke-linecap="round"/>
</svg>
