<svg width="16" height="16" viewBox="0 0 16 16" fill="none" xmlns="http://www.w3.org/2000/svg">
<g clip-path="url(#clip0_45_1045)">
<path d="M2.66699 6.66659C2.66699 4.15259 2.66699 2.89525 3.44833 2.11459C4.22966 1.33392 5.48633 1.33325 8.00033 1.33325C10.5143 1.33325 11.7717 1.33325 12.5523 2.11459C13.333 2.89592 13.3337 4.15259 13.3337 6.66659V7.99992C13.3337 10.5139 13.3337 11.7713 12.5523 12.5519C11.771 13.3326 10.5143 13.3333 8.00033 13.3333C5.48633 13.3333 4.22899 13.3333 3.44833 12.5519C2.66766 11.7706 2.66699 10.5139 2.66699 7.99992V6.66659Z" stroke="#737373"/>
<path d="M10.3335 10.6667H11.3335M4.66683 10.6667H5.66683M4.00016 13V14C4.00016 14.1768 4.0704 14.3464 4.19543 14.4714C4.32045 14.5964 4.49002 14.6667 4.66683 14.6667H5.66683C5.84364 14.6667 6.01321 14.5964 6.13823 14.4714C6.26326 14.3464 6.3335 14.1768 6.3335 14V13.3333M12.0002 13V14C12.0002 14.1768 11.9299 14.3464 11.8049 14.4714C11.6799 14.5964 11.5103 14.6667 11.3335 14.6667H10.3335C10.1567 14.6667 9.98712 14.5964 9.86209 14.4714C9.73707 14.3464 9.66683 14.1768 9.66683 14V13.3333M13.3335 6H14.0002C14.177 6 14.3465 6.07024 14.4716 6.19526C14.5966 6.32029 14.6668 6.48986 14.6668 6.66667V7.33333C14.6668 7.43683 14.6427 7.53891 14.5964 7.63148C14.5502 7.72405 14.483 7.80457 14.4002 7.86667L13.3335 8.66667H2.66683L1.60016 7.86667C1.51737 7.80457 1.45016 7.72405 1.40388 7.63148C1.35759 7.53891 1.3335 7.43683 1.3335 7.33333V6.66667C1.3335 6.48986 1.40373 6.32029 1.52876 6.19526C1.65378 6.07024 1.82335 6 2.00016 6H2.66683" stroke="#737373" stroke-linecap="round" stroke-linejoin="round"/>
<path d="M13 3.33325H3" stroke="#737373" stroke-linecap="round"/>
</g>
<defs>
<clipPath id="clip0_45_1045">
<rect width="16" height="16" fill="white"/>
</clipPath>
</defs>
</svg>
