<svg width="24" height="24" viewBox="0 0 24 24" fill="none" xmlns="http://www.w3.org/2000/svg">
<rect width="24" height="24" rx="4" fill="url(#paint0_linear_81_333)"/>
<g clip-path="url(#clip0_81_333)">
<path d="M16.471 7.52905C17.706 8.76355 16.705 11.7661 14.236 14.2356C11.766 16.7051 8.76354 17.7056 7.52904 16.4711C6.29404 15.2361 7.29504 12.2341 9.76454 9.76455C12.234 7.29505 15.2365 6.29455 16.471 7.52905ZM7.52904 7.52905C6.29404 8.76405 7.29504 11.7666 9.76404 14.2356C12.234 16.7051 15.2365 17.7056 16.471 16.4711C17.706 15.2366 16.705 12.2341 14.2355 9.76455C11.766 7.29505 8.76354 6.29455 7.52904 7.52905Z" stroke="white"/>
<path d="M13.25 12C13.25 12.3315 13.1183 12.6495 12.8839 12.8839C12.6495 13.1183 12.3315 13.25 12 13.25C11.6685 13.25 11.3505 13.1183 11.1161 12.8839C10.8817 12.6495 10.75 12.3315 10.75 12C10.75 11.6685 10.8817 11.3505 11.1161 11.1161C11.3505 10.8817 11.6685 10.75 12 10.75C12.3315 10.75 12.6495 10.8817 12.8839 11.1161C13.1183 11.3505 13.25 11.6685 13.25 12Z" stroke="white"/>
</g>
<defs>
<linearGradient id="paint0_linear_81_333" x1="0" y1="0" x2="24" y2="24" gradientUnits="userSpaceOnUse">
<stop stop-color="#8B5CF6"/>
<stop offset="1" stop-color="#3B82F6"/>
</linearGradient>
<clipPath id="clip0_81_333">
<rect width="12" height="12" fill="white" transform="translate(6 6)"/>
</clipPath>
</defs>
</svg>
