<svg width="16" height="16" viewBox="0 0 16 16" fill="none" xmlns="http://www.w3.org/2000/svg">
<g clip-path="url(#clip0_45_1032)">
<path d="M14.6668 14.6667H1.3335" stroke="#737373" stroke-linecap="round"/>
<path d="M13.9999 14.6667V4.00004C13.9999 2.74271 13.9999 2.11471 13.6093 1.72404C13.2186 1.33337 12.5906 1.33337 11.3333 1.33337H9.99994C8.7426 1.33337 8.1146 1.33337 7.72394 1.72404C7.40927 2.03804 7.34794 2.50671 7.33594 3.33337" stroke="#737373"/>
<path d="M10 14.6667V6.00004C10 4.74271 10 4.11471 9.60933 3.72404C9.21867 3.33337 8.59067 3.33337 7.33333 3.33337H4.66667C3.40933 3.33337 2.78133 3.33337 2.39067 3.72404C2 4.11471 2 4.74271 2 6.00004V14.6667" stroke="#737373"/>
<path d="M6 14.6667V12.6667M4 5.33337H8M4 7.33337H8M4 9.33337H8" stroke="#737373" stroke-linecap="round"/>
</g>
<defs>
<clipPath id="clip0_45_1032">
<rect width="16" height="16" fill="white"/>
</clipPath>
</defs>
</svg>
